<?xml version="1.0" standalone="no"?>
<!DOCTYPE svg PUBLIC "-//W3C//DTD SVG 20010904//EN"
 "http://www.w3.org/TR/2001/REC-SVG-20010904/DTD/svg10.dtd">
<svg version="1.0" xmlns="http://www.w3.org/2000/svg"
 width="700.000000pt" height="700.000000pt" viewBox="0 0 700.000000 700.000000"
 preserveAspectRatio="xMidYMid meet">
<metadata>
Created by potrace 1.11, written by Peter Selinger 2001-2013
</metadata>
<g transform="translate(0.000000,700.000000) scale(0.100000,-0.100000)"
fill="#000000" stroke="none">
<path d="M790 6192 l0 -49 38 2 c72 4 67 24 67 -288 l0 -282 -53 -3 -53 -3 3
-47 3 -47 170 0 c282 0 379 18 462 90 44 37 86 114 102 184 14 63 10 199 -7
251 -42 123 -134 206 -256 229 -25 5 -143 9 -261 10 l-215 2 0 -49z m425 -57
c134 -15 210 -121 204 -284 -3 -81 -14 -123 -45 -173 -46 -72 -108 -97 -261
-105 l-103 -5 0 284 c0 157 2 287 5 290 6 5 127 1 200 -7z"/>
<path d="M5709 6236 c-1 -1 -2 -20 -4 -43 l-2 -43 47 0 47 0 -79 -222 c-43
-123 -83 -232 -88 -243 -4 -11 -15 -41 -25 -67 -13 -37 -22 -48 -38 -49 -74
-3 -71 -2 -72 -41 -1 -21 2 -42 5 -48 4 -7 58 -10 151 -8 l144 3 0 45 0 45
-37 1 c-21 0 -41 3 -44 7 -3 3 6 42 21 86 l27 81 138 0 138 0 27 -81 c15 -44
25 -82 23 -85 -3 -2 -23 -5 -46 -6 l-42 -1 0 -49 0 -48 150 0 150 0 0 50 0 50
-44 0 c-42 0 -44 1 -59 43 -8 23 -56 152 -105 287 l-90 245 48 3 48 3 -2 42
-2 42 -192 1 c-106 1 -192 1 -193 0z m245 -231 c24 -77 48 -148 51 -157 7 -17
-2 -18 -103 -18 l-110 0 50 153 c51 153 57 171 63 165 2 -2 24 -66 49 -143z"/>
<path d="M2675 6037 c-75 -30 -115 -85 -122 -165 -4 -47 -1 -65 19 -102 60
-111 202 -139 294 -58 47 42 66 82 68 142 2 103 -75 186 -176 192 -29 2 -67
-2 -83 -9z"/>
<path d="M4259 6040 c-106 -32 -162 -167 -111 -267 64 -124 227 -145 316 -42
127 149 -17 366 -205 309z"/>
<path d="M1085 4463 c-77 -40 -108 -92 -109 -180 0 -69 23 -113 79 -152 133
-90 306 3 305 164 0 39 -31 104 -61 132 -56 51 -155 68 -214 36z"/>
<path d="M2668 4466 c-110 -47 -151 -191 -81 -289 107 -152 346 -77 346 109 0
107 -77 188 -181 190 -31 1 -69 -4 -84 -10z"/>
<path d="M4245 4466 c-130 -58 -157 -235 -50 -323 176 -145 410 70 280 257
-48 70 -153 100 -230 66z"/>
<path d="M5812 4459 c-49 -25 -86 -69 -100 -119 -41 -154 110 -290 259 -232
103 40 150 179 93 278 -47 82 -167 117 -252 73z"/>
<path d="M1080 2888 c-116 -59 -142 -211 -52 -304 78 -80 195 -81 273 -1 72
72 77 180 12 258 -57 67 -154 87 -233 47z"/>
<path d="M2665 2892 c-110 -52 -148 -187 -79 -285 94 -132 298 -96 343 60 44
151 -122 292 -264 225z"/>
<path d="M4255 2900 c-17 -5 -46 -24 -64 -42 -134 -131 -36 -350 149 -332 53
5 91 25 125 66 36 43 47 74 46 131 -2 98 -74 175 -172 182 -30 3 -68 0 -84 -5z"/>
<path d="M5810 2887 c-174 -92 -118 -352 79 -362 108 -5 200 82 201 191 1 143
-155 238 -280 171z"/>
<path d="M727 1532 c-27 -3 -28 -6 -25 -50 l3 -47 43 1 42 1 0 -287 0 -287
-45 1 -46 1 3 -49 3 -50 110 1 c61 1 120 1 133 2 20 1 22 6 22 49 l0 47 -42 0
-42 0 0 277 c-1 152 2 274 6 270 4 -4 52 -124 107 -267 55 -143 111 -287 124
-320 13 -33 29 -60 36 -60 13 0 260 612 261 644 0 8 3 11 7 7 11 -11 9 -546
-2 -548 -5 0 -21 -2 -35 -3 -14 -2 -30 -3 -37 -4 -7 -1 -11 -19 -11 -46 l0
-45 41 -1 c56 -1 219 -1 235 0 7 1 12 17 12 45 0 48 -8 55 -57 50 l-33 -4 0
290 0 289 43 -2 42 -2 3 50 3 50 -108 -2 c-59 -1 -119 -2 -133 -2 -27 -1 -17
20 -145 -311 -31 -80 -61 -158 -67 -173 -6 -15 -14 -24 -18 -20 -4 4 -49 118
-101 253 -51 135 -94 246 -95 248 -3 5 -202 8 -237 4z"/>
<path d="M5708 1523 c-2 -5 -4 -24 -3 -43 0 -34 1 -35 43 -35 23 0 42 -5 42
-11 0 -9 -137 -400 -187 -531 -15 -42 -17 -43 -62 -43 l-47 0 2 -42 c1 -24 2
-46 3 -49 1 -3 68 -5 149 -5 l148 0 1 48 1 48 -44 0 c-24 0 -44 3 -44 7 0 25
54 163 63 164 18 1 186 1 229 0 l36 -1 26 -78 c14 -42 26 -80 26 -85 0 -4 -20
-7 -45 -7 l-45 0 0 -48 0 -49 150 1 150 0 0 48 0 48 -43 0 -43 0 -83 228 c-45
125 -94 255 -107 289 -13 34 -24 63 -24 65 0 2 21 3 47 3 l47 0 2 43 1 42
-193 0 c-106 0 -194 -3 -196 -7z m247 -230 c26 -82 48 -152 49 -158 0 -6 -41
-10 -105 -11 l-107 -1 8 26 c48 153 97 291 104 291 2 0 25 -66 51 -147z"/>
<path d="M2665 1322 c-100 -48 -141 -159 -96 -258 65 -142 272 -148 344 -8 47
90 16 202 -71 256 -47 29 -127 33 -177 10z"/>
<path d="M4247 1326 c-132 -59 -159 -231 -51 -326 99 -87 258 -46 306 79 24
64 5 154 -44 203 -51 51 -150 71 -211 44z"/>
</g>
</svg>
